# xmcd
#
# Track frame offsets: 
#        182
#        17170
#        33532
#        53362
#        71392
#        83635
#        107442
#        119870
#        132312
#        148572
#        159785
#        178527
#        192495
#
# Disc length: 2835 seconds
#
# Revision: 0
# Processed by: cddbd v1.5.2PL0 Copyright (c) Steve Scherf et al.
# Submitted via: ExactAudioCopyFreeDBPlugin 1.0
#
DISCID=a80b110d
DTITLE=Keith Pearson's Hit Kickers - Don't Say a Word
DYEAR=1996
DGENRE=Bluegrass
TTITLE0=Glad when you're gone
TTITLE1=Go down easy
TTITLE2=Lovers again
TTITLE3=Skyline fever
TTITLE4=Casual acquaintance
TTITLE5=Runnin' back to you
TTITLE6=Crazy men, cowboys and kids
TTITLE7=Sweethart
TTITLE8=Don't say a word
TTITLE9=Bluegrass lullaby
TTITLE10=Flowers and lace
TTITLE11=Farewell blues
TTITLE12=Rock and roll on Saturday night
EXTD=
EXTT0=
EXTT1=
EXTT2=
EXTT3=
EXTT4=
EXTT5=
EXTT6=
EXTT7=
EXTT8=
EXTT9=
EXTT10=
EXTT11=
EXTT12=
PLAYORDER=
